<svg width="360" height="567" viewBox="0 0 360 567" fill="none" xmlns="http://www.w3.org/2000/svg">
<path d="M220.288 564.493C183.415 557.876 156.961 531.224 133.635 507.708C121.143 495.121 109.329 483.222 96.705 474.682C68.1787 455.396 42.7424 448.07 18.1351 440.987C-21.6397 429.554 -62.7711 417.715 -107.03 357.915C-151.591 297.69 -168.303 240.359 -158.11 182.643C-148.124 126.041 -112.551 77.1078 -82.6867 40.8231C-63.2044 17.1257 -49.5819 -12.1976 -35.1868 -43.241C-22.6571 -70.237 -9.71289 -98.1437 7.84758 -123.46C52.8981 -188.36 96.7615 -211.652 154.511 -201.291C176.782 -197.304 199.675 -188.704 223.905 -179.597C245.328 -171.563 267.467 -163.246 292.282 -156.709C294.675 -156.082 297.218 -155.515 299.818 -155.05C312.442 -152.783 325.745 -152.723 339.801 -152.642C354.817 -152.561 370.324 -152.48 386.095 -149.647C404.974 -146.267 421.215 -139.366 435.705 -128.58C480.51 -95.2498 484.618 -57.1842 488.593 -20.3935C490.214 -5.39799 491.891 10.0833 496.356 26.1716C502.065 46.6918 512.353 65.6133 523.243 85.668C539.899 116.307 557.121 147.998 558.835 187.844C562.133 264.542 515.254 307.141 479.719 332.518C468.32 340.673 457.09 347.088 446.237 353.301C423.665 366.212 404.183 377.363 391.389 399.846C387.564 406.564 385.529 418.079 383.57 429.21C381.215 442.566 378.765 456.388 372.755 468.813C351.011 513.82 303.455 561.235 246.233 565.768C237.415 566.416 228.691 565.991 220.288 564.493Z" fill="#4D5DFA"/>
<path d="M-92.2798 345.327C-25.486 435.584 28.5143 404.641 106.745 457.541C151.324 487.673 182.149 550.469 244.855 545.531C292.015 541.807 334.899 503.195 356.039 459.443C365.913 439.004 364.556 408.183 375.315 389.261C397.529 350.224 434.195 340.693 469.297 315.64C509.75 286.741 542.629 249.647 540.01 188.754C537.466 129.359 493.659 87.2662 478.284 31.9386C462.194 -25.9794 479.49 -71.391 424.962 -111.986C381.589 -144.264 332.864 -125.201 287.776 -137.08C172.521 -167.415 109.552 -236.18 22.9372 -111.379C-13.2954 -59.1679 -29.6689 6.90552 -68.5958 54.1991C-137.783 138.324 -180.892 225.585 -92.2798 345.327Z" fill="#4D5DFA"/>
</svg>
