<svg width="82" height="86" viewBox="0 0 82 86" fill="none" xmlns="http://www.w3.org/2000/svg">
<path d="M43.4244 85.0806C39.225 84.3478 36.2122 81.3962 33.5556 78.7921C32.1329 77.3981 30.7875 76.0803 29.3497 75.1346C26.1009 72.9988 23.204 72.1875 20.4015 71.4031C15.8716 70.1369 11.1872 68.8259 6.14656 62.2034C1.0716 55.5339 -0.831776 49.1848 0.329134 42.7932C1.46644 36.5248 5.51782 31.1058 8.91901 27.0875C11.1378 24.4632 12.6893 21.2158 14.3287 17.7779C15.7557 14.7883 17.2299 11.6978 19.2299 8.89419C24.3606 1.70696 29.3562 -0.872559 35.9332 0.274888C38.4696 0.716386 41.0769 1.66886 43.8364 2.67735C46.2763 3.56707 48.7977 4.48816 51.6238 5.21204C51.8963 5.28152 52.186 5.34427 52.4821 5.39581C53.9198 5.64682 55.4348 5.65354 57.0356 5.66251C58.7459 5.67147 60.5119 5.68044 62.308 5.99419C64.4582 6.36846 66.3079 7.13268 67.958 8.32718C73.0609 12.0183 73.5287 16.2338 73.9815 20.3081C74.166 21.9688 74.357 23.6832 74.8656 25.4649C75.5158 27.7374 76.6874 29.8328 77.9277 32.0538C79.8246 35.4468 81.786 38.9564 81.9812 43.3691C82.3568 51.8629 77.0179 56.5804 72.9708 59.3908C71.6725 60.294 70.3936 61.0044 69.1576 61.6924C66.5868 63.1222 64.368 64.3571 62.911 66.8469C62.4754 67.591 62.2436 68.8662 62.0205 70.0988C61.7522 71.5779 61.4733 73.1086 60.7887 74.4846C58.3124 79.4689 52.8963 84.7198 46.3793 85.2218C45.375 85.2935 44.3815 85.2464 43.4244 85.0806Z" fill="#EDEFFF" fill-opacity="0.1"/>
</svg>
